<svg xmlns="http://www.w3.org/2000/svg" width="52" height="87" viewBox="0 0 52 87">
    <g fill="none" fill-rule="evenodd">
        <g fill-rule="nonzero">
            <g transform="translate(-150 -241) translate(150 241)">
                <path fill="#E9EEF2" d="M11 27L43 27 43 33 11 33z"/>
                <path fill="#AD6643" d="M2 33L51 33 51 39 2 39z"/>
                <path fill="#E9EEF2" d="M42.133 86L9.867 86 4 39 48 39z"/>
                <path fill="#AD6643" d="M45.067 72L6.933 72 4 51 48 51z"/>
                <ellipse cx="26" cy="60" fill="#8C5237" rx="7" ry="4"/>
                <path fill="#000" d="M9.462 0C8.654 0 8 .616 8 1.375v2.75c.003 2.277 1.964 4.122 4.385 4.125h29.23c.807 0 1.461.616 1.462 1.375v2.75c-.001.759-.655 1.374-1.462 1.375H29.923c-2.42.003-4.382 1.848-4.385 4.125v2.75c0 .76.655 1.375 1.462 1.375.807 0 1.462-.616 1.462-1.375v-2.75c0-.759.654-1.374 1.461-1.375h11.692c2.42-.003 4.382-1.848 4.385-4.125v-2.75c-.003-2.277-1.964-4.122-4.385-4.125h-29.23c-.807 0-1.461-.616-1.462-1.375v-2.75C10.923.615 10.27 0 9.462 0zM0 32.381v5.905c0 .815.647 1.476 1.444 1.476h1.614l1.085 8.871c-.382.052-.728.257-.961.57-.233.315-.333.711-.278 1.1l2.888 20.668c.092.653.597 1.164 1.237 1.252l1.649 13.484c.09.739.705 1.293 1.433 1.293H41.89c.728 0 1.343-.554 1.433-1.293l1.65-13.484c.64-.088 1.144-.6 1.236-1.252l2.889-20.667c.055-.39-.046-.786-.279-1.1-.233-.314-.579-.52-.961-.57l1.085-8.872h1.614c.797 0 1.444-.661 1.444-1.476V32.38c0-.815-.647-1.476-1.444-1.476h-7.223v-4.429c0-.815-.646-1.476-1.444-1.476H10.11c-.798 0-1.444.66-1.444 1.476v4.429H1.444c-.797 0-1.444.66-1.444 1.476zm40.614 51.667H11.386l-1.444-11.81h32.116l-1.444 11.81zm2.911-14.762H8.475L5.999 51.57H46l-2.476 17.715zm1.422-20.667H7.053L5.97 39.762h40.06l-1.083 8.857zM11.556 27.952h28.888v2.953H11.556v-2.953zm-8.667 5.905H49.11v2.953H2.89v-2.953z"/>
                <path fill="#000" d="M26 66c5.047 0 9-2.636 9-6s-3.953-6-9-6c-5.047 0-9 2.636-9 6s3.953 6 9 6zm0-9c3.434 0 6 1.584 6 3s-2.566 3-6 3-6-1.584-6-3 2.566-3 6-3z"/>
            </g>
        </g>
    </g>
</svg>
