<?xml version="1.0" standalone="no"?>
<!DOCTYPE svg PUBLIC "-//W3C//DTD SVG 20010904//EN"
 "http://www.w3.org/TR/2001/REC-SVG-20010904/DTD/svg10.dtd">
<svg version="1.0" xmlns="http://www.w3.org/2000/svg"
 width="60.000000pt" height="63.000000pt" viewBox="0 0 60.000000 63.000000"
 preserveAspectRatio="xMidYMid meet">

<g transform="translate(0.000000,63.000000) scale(0.100000,-0.100000)"
fill="#000000" stroke="none">
<path d="M297 587 c-8 -13 -40 -37 -70 -52 -32 -17 -63 -42 -73 -60 -10 -16
-33 -44 -52 -62 -27 -26 -33 -38 -31 -65 2 -24 -4 -40 -23 -61 -33 -36 -43
-77 -28 -121 14 -45 39 -66 86 -73 26 -4 49 -17 70 -39 31 -33 33 -34 117 -34
85 0 85 0 116 35 20 23 39 35 56 35 98 0 146 122 76 194 -22 22 -31 42 -31 65
0 45 -16 70 -56 87 -19 8 -34 21 -34 29 0 8 -16 27 -35 42 -29 23 -35 35 -35
66 0 30 -4 37 -19 37 -10 0 -26 -10 -34 -23z m58 -90 c24 -12 37 -26 43 -49 6
-26 14 -34 35 -36 16 -2 34 -14 43 -28 16 -23 15 -37 -1 -76 -5 -13 -2 -18 9
-18 9 0 28 -11 41 -25 31 -30 33 -83 6 -116 -18 -23 -21 -23 -236 -24 l-217 0
-19 24 c-27 34 -25 86 6 116 13 14 31 25 39 25 12 0 12 5 4 28 -16 42 -3 78
31 90 22 8 30 18 33 38 2 23 16 35 68 65 35 21 67 44 70 51 3 7 6 -1 8 -18 2
-24 11 -34 37 -47z m35 -432 c-21 -22 -31 -25 -98 -25 -56 0 -80 4 -94 17 -10
9 -18 20 -18 25 0 4 53 8 117 8 l116 0 -23 -25z"/>
<path d="M185 290 c16 -18 16 -20 1 -26 -27 -11 -18 -27 12 -19 42 10 48 22
21 44 -33 28 -59 28 -34 1z"/>
<path d="M366 287 c-31 -25 -29 -30 17 -41 30 -7 38 8 10 19 -17 6 -17 7 0 16
17 10 24 29 10 29 -5 0 -21 -11 -37 -23z"/>
<path d="M250 200 c-12 -12 -18 -25 -14 -31 4 -6 14 -2 25 10 25 26 45 27 61
1 15 -23 28 -26 28 -6 0 18 -38 46 -62 46 -10 0 -27 -9 -38 -20z"/>
</g>
</svg>
