<svg xmlns="http://www.w3.org/2000/svg" width="24" height="22" viewBox="0 0 24 22">
    <g fill="none" fill-rule="evenodd">
        <g fill="#000" fill-rule="nonzero">
            <g>
                <path d="M5.5 2C2.416 2 0 3.318 0 5s2.416 3 5.5 3S11 6.682 11 5 8.584 2 5.5 2zm0 5C2.848 7 1 5.946 1 5s1.848-2 4.5-2S10 4.054 10 5 8.152 7 5.5 7z" transform="translate(-290 -545) translate(290 545.07)"/>
                <path d="M10.5 4c-.276 0-.5.236-.5.526v6.316c0 .996-1.848 2.105-4.5 2.105S1 11.837 1 10.842V4.526C1 4.236.776 4 .5 4s-.5.236-.5.526v6.316C0 12.612 2.416 14 5.5 14s5.5-1.387 5.5-3.158V4.526c0-.29-.224-.526-.5-.526z" transform="translate(-290 -545) translate(290 545.07)"/>
                <path d="M5.5 4C4.566 4 3 4.13 3 5s1.566 1 2.5 1C6.434 6 8 5.87 8 5S6.434 4 5.5 4zM18.5 0C15.416 0 13 1.318 13 3s2.416 3 5.5 3S24 4.682 24 3s-2.416-3-5.5-3zm0 5C15.848 5 14 3.946 14 3s1.848-2 4.5-2S23 2.054 23 3s-1.848 2-4.5 2z" transform="translate(-290 -545) translate(290 545.07)"/>
                <path d="M23.5 2c-.276 0-.5.236-.5.526v6.316c0 .996-1.848 2.105-4.5 2.105S14 9.837 14 8.842V2.526c0-.29-.224-.526-.5-.526s-.5.236-.5.526v6.316C13 10.612 15.416 12 18.5 12S24 10.613 24 8.842V2.526c0-.29-.224-.526-.5-.526z" transform="translate(-290 -545) translate(290 545.07)"/>
                <path d="M18.5 2c-.934 0-2.5.13-2.5 1s1.566 1 2.5 1c.934 0 2.5-.13 2.5-1s-1.566-1-2.5-1zM21.972 13.335c-.091-.26-.374-.397-.637-.307l-20 7c-.26.09-.398.376-.307.637.072.206.265.335.472.335.055 0 .11-.009.165-.028l20-7c.26-.091.398-.376.307-.637z" transform="translate(-290 -545) translate(290 545.07)"/>
                <path d="M23.5 18H.5c-.276 0-.5.224-.5.5s.224.5.5.5h23c.276 0 .5-.224.5-.5s-.224-.5-.5-.5z" transform="translate(-290 -545) translate(290 545.07)"/>
            </g>
        </g>
    </g>
</svg>
