<svg xmlns="http://www.w3.org/2000/svg" width="81" height="81" viewBox="0 0 81 81">
    <g fill="none" fill-rule="evenodd">
        <g fill-rule="nonzero">
            <g>
                <path fill="#92EFE8" d="M54 29.585v12.05c0 .875-.71 1.585-1.585 1.585h-22.83c-.875 0-1.585.71-1.585 1.585v12.049c0 .875-.71 1.585-1.585 1.585H3.585c-.875 0-1.585.71-1.585 1.585v18.39C2 79.29 2.71 80 3.585 80h74.83C79.29 80 80 79.29 80 78.415v-48.83C80 28.71 79.29 28 78.415 28h-22.83C54.71 28 54 28.71 54 29.585z" transform="translate(-124 -238) translate(124 238)"/>
                <path fill="#FFD44A" d="M65.998 2L69.09 8.582 76 9.636 71.001 14.761 72.183 21.997 66.002 18.582 59.823 22 61.001 14.764 56 9.642 62.91 8.584z" transform="translate(-124 -238) translate(124 238)"/>
                <path fill="#000" d="M77.836 26H55.055c-1.745 0-3.164 1.418-3.164 3.16v12.012H29.109c-1.744 0-3.164 1.418-3.164 3.161v12.012H3.165C1.418 56.345 0 57.763 0 59.505V77.84C0 79.582 1.42 81 3.164 81h74.672C79.58 81 81 79.582 81 77.84V53.5c0-.873-.708-1.58-1.582-1.58-.874 0-1.582.707-1.582 1.58v24.34H3.164V59.505h22.781v7.033c0 .873.709 1.58 1.582 1.58.874 0 1.582-.707 1.582-1.58V44.334h22.782v5.698c0 .873.708 1.58 1.582 1.58.873 0 1.582-.707 1.582-1.58V29.16h22.78v11.215c0 .873.71 1.58 1.583 1.58.874 0 1.582-.707 1.582-1.58V29.161C81 27.418 79.58 26 77.836 26z" transform="translate(-124 -238) translate(124 238)"/>
                <path fill="#000" d="M79.5 45c-.394 0-.781.16-1.06.44-.28.279-.44.664-.44 1.06 0 .395.16.782.44 1.06.279.28.666.44 1.06.44s.781-.16 1.06-.44c.28-.279.44-.666.44-1.06 0-.395-.16-.782-.44-1.06-.279-.28-.666-.44-1.06-.44zM59.098 14.794l-1.09 6.368c-.1.59.142 1.186.626 1.538.274.199.598.3.924.3.25 0 .501-.06.732-.18l5.713-3.009 5.714 3.005c.53.279 1.171.232 1.655-.12s.726-.949.625-1.539l-1.093-6.367 4.622-4.51c.428-.419.582-1.044.397-1.613-.185-.57-.677-.984-1.269-1.07l-6.389-.928L67.407.876C67.142.34 66.596 0 65.997 0c-.598 0-1.144.34-1.409.877l-2.855 5.794-6.388.931c-.592.086-1.084.502-1.268 1.071-.185.57-.03 1.194.398 1.612l4.623 4.509zm3.905-5.129c.512-.074.955-.396 1.183-.86L66 5.127l1.814 3.677c.23.464.672.786 1.184.86l4.054.588-2.933 2.863c-.37.362-.54.882-.452 1.393l.694 4.041-3.627-1.907c-.458-.24-1.005-.24-1.463 0l-3.626 1.91.692-4.042c.087-.51-.082-1.031-.453-1.392l-2.934-2.862 4.054-.59zM41 62c-2.206 0-4 1.755-4 3.912 0 .872.723 1.579 1.615 1.579.891 0 1.614-.707 1.614-1.579 0-.416.346-.754.771-.754.656 0 .771.243.771.754 0 1.563-2.406 4.004-4.113 5.237-.562.404-.795 1.116-.577 1.764.217.649.836 1.087 1.534 1.087h4.77c.892 0 1.615-.707 1.615-1.579s-.723-1.579-1.614-1.579h-.694C43.904 69.451 45 67.7 45 65.912 45 63.572 43.393 62 41 62zM66.226 74c.98 0 1.774-.707 1.774-1.579V63.58c0-.639-.432-1.214-1.095-1.459-.663-.244-1.426-.11-1.933.342l-3.452 3.073c-.693.617-.693 1.616 0 2.233.692.617 1.816.617 2.509 0l.423-.377v5.03c0 .872.794 1.579 1.774 1.579zM13.36 62h-1.845c-.837 0-1.515.707-1.515 1.579s.678 1.579 1.515 1.579h1.844c.337 0 .61.285.61.636 0 .305-.207.56-.483.622-.042-.002-.084-.004-.127-.004h-1.844c-.837 0-1.515.707-1.515 1.58 0 .871.678 1.578 1.515 1.578h.71c.07.01.142.018.215.018h.92c.042 0 .084-.002.126-.004.276.061.484.317.484.622 0 .35-.274.636-.61.636h-1.845c-.837 0-1.515.707-1.515 1.58 0 .871.678 1.578 1.515 1.578h1.844C15.367 74 17 72.298 17 70.206c0-.822-.253-1.584-.682-2.206.429-.622.682-1.384.682-2.206C17 63.702 15.367 62 13.36 62zM53.5 55c-.395 0-.782.16-1.06.44-.28.279-.44.666-.44 1.06 0 .395.16.782.44 1.06.279.28.666.44 1.06.44.395 0 .782-.16 1.06-.44.28-.279.44-.666.44-1.06 0-.395-.16-.782-.44-1.06-.279-.28-.666-.44-1.06-.44z" transform="translate(-124 -238) translate(124 238)"/>
            </g>
        </g>
    </g>
</svg>
