<?xml version="1.0" encoding="UTF-8"?>
<svg xmlns="http://www.w3.org/2000/svg" xmlns:xlink="http://www.w3.org/1999/xlink" width="45pt" height="45pt" viewBox="0 0 45 45" version="1.1">
<g id="surface1">
<path style=" stroke:none;fill-rule:nonzero;fill:rgb(57.254902%,93.72549%,90.980392%);fill-opacity:1;" d="M 30 16.4375 L 30 23.128906 C 30 23.617188 29.605469 24.011719 29.121094 24.011719 L 16.4375 24.011719 C 15.949219 24.011719 15.554688 24.40625 15.554688 24.890625 L 15.554688 31.585938 C 15.554688 32.070312 15.160156 32.464844 14.675781 32.464844 L 1.992188 32.464844 C 1.503906 32.464844 1.109375 32.859375 1.109375 33.347656 L 1.109375 43.5625 C 1.109375 44.050781 1.503906 44.445312 1.992188 44.445312 L 43.5625 44.445312 C 44.050781 44.445312 44.445312 44.050781 44.445312 43.5625 L 44.445312 16.4375 C 44.445312 15.949219 44.050781 15.554688 43.5625 15.554688 L 30.878906 15.554688 C 30.394531 15.554688 30 15.949219 30 16.4375 Z M 30 16.4375 "/>
<path style=" stroke:none;fill-rule:nonzero;fill:rgb(100%,83.137255%,29.019608%);fill-opacity:1;" d="M 36.664062 1.109375 L 38.382812 4.769531 L 42.222656 5.351562 L 39.445312 8.199219 L 40.101562 12.21875 L 36.667969 10.324219 L 33.234375 12.222656 L 33.890625 8.203125 L 31.109375 5.355469 L 34.949219 4.769531 Z M 36.664062 1.109375 "/>
<path style=" stroke:none;fill-rule:nonzero;fill:rgb(0%,0%,0%);fill-opacity:1;" d="M 43.242188 14.445312 L 30.585938 14.445312 C 29.617188 14.445312 28.828125 15.230469 28.828125 16.199219 L 28.828125 22.875 L 16.171875 22.875 C 15.203125 22.875 14.414062 23.660156 14.414062 24.628906 L 14.414062 31.304688 L 1.757812 31.304688 C 0.789062 31.304688 0 32.089844 0 33.058594 L 0 43.246094 C 0 44.210938 0.789062 45 1.757812 45 L 43.242188 45 C 44.210938 45 45 44.210938 45 43.246094 L 45 29.722656 C 45 29.238281 44.605469 28.84375 44.121094 28.84375 C 43.636719 28.84375 43.242188 29.238281 43.242188 29.722656 L 43.242188 43.246094 L 1.757812 43.246094 L 1.757812 33.058594 L 14.414062 33.058594 L 14.414062 36.964844 C 14.414062 37.449219 14.808594 37.84375 15.292969 37.84375 C 15.777344 37.84375 16.171875 37.449219 16.171875 36.964844 L 16.171875 24.628906 L 28.828125 24.628906 L 28.828125 27.796875 C 28.828125 28.28125 29.222656 28.671875 29.707031 28.671875 C 30.191406 28.671875 30.585938 28.28125 30.585938 27.796875 L 30.585938 16.199219 L 43.242188 16.199219 L 43.242188 22.429688 C 43.242188 22.914062 43.636719 23.308594 44.121094 23.308594 C 44.605469 23.308594 45 22.914062 45 22.429688 L 45 16.199219 C 45 15.230469 44.210938 14.445312 43.242188 14.445312 Z M 43.242188 14.445312 "/>
<path style=" stroke:none;fill-rule:nonzero;fill:rgb(0%,0%,0%);fill-opacity:1;" d="M 44.167969 25 C 43.949219 25 43.734375 25.089844 43.578125 25.246094 C 43.421875 25.398438 43.332031 25.613281 43.332031 25.832031 C 43.332031 26.054688 43.421875 26.269531 43.578125 26.421875 C 43.734375 26.578125 43.949219 26.667969 44.167969 26.667969 C 44.386719 26.667969 44.601562 26.578125 44.753906 26.421875 C 44.910156 26.265625 45 26.050781 45 25.832031 C 45 25.613281 44.910156 25.398438 44.753906 25.246094 C 44.601562 25.089844 44.386719 25 44.167969 25 Z M 32.832031 8.21875 L 32.226562 11.757812 C 32.171875 12.085938 32.304688 12.414062 32.574219 12.609375 C 32.726562 12.722656 32.90625 12.777344 33.085938 12.777344 C 33.226562 12.777344 33.367188 12.746094 33.496094 12.679688 L 36.667969 11.007812 L 39.84375 12.675781 C 40.136719 12.832031 40.492188 12.804688 40.761719 12.609375 C 41.03125 12.414062 41.164062 12.082031 41.109375 11.753906 L 40.503906 8.214844 L 43.070312 5.710938 C 43.308594 5.476562 43.394531 5.132812 43.289062 4.816406 C 43.1875 4.5 42.914062 4.269531 42.585938 4.21875 L 39.035156 3.703125 L 37.449219 0.488281 C 37.300781 0.1875 36.996094 0 36.664062 0 C 36.332031 0 36.03125 0.1875 35.882812 0.488281 L 34.296875 3.707031 L 30.746094 4.222656 C 30.417969 4.269531 30.144531 4.503906 30.042969 4.816406 C 29.941406 5.136719 30.027344 5.480469 30.265625 5.714844 Z M 35 5.371094 C 35.285156 5.328125 35.53125 5.148438 35.660156 4.890625 L 36.667969 2.847656 L 37.675781 4.890625 C 37.800781 5.148438 38.046875 5.328125 38.332031 5.367188 L 40.585938 5.695312 L 38.953125 7.285156 C 38.75 7.488281 38.65625 7.777344 38.703125 8.058594 L 39.089844 10.304688 L 37.074219 9.246094 C 36.820312 9.113281 36.515625 9.113281 36.261719 9.246094 L 34.246094 10.308594 L 34.632812 8.0625 C 34.679688 7.777344 34.585938 7.488281 34.378906 7.289062 L 32.75 5.699219 L 35.003906 5.371094 Z M 22.777344 34.445312 C 21.550781 34.445312 20.554688 35.417969 20.554688 36.617188 C 20.554688 37.101562 20.957031 37.496094 21.453125 37.496094 C 21.949219 37.496094 22.347656 37.101562 22.347656 36.617188 C 22.347656 36.386719 22.542969 36.199219 22.777344 36.199219 C 23.140625 36.199219 23.207031 36.332031 23.207031 36.617188 C 23.207031 37.484375 21.871094 38.84375 20.921875 39.527344 C 20.609375 39.75 20.480469 40.148438 20.601562 40.507812 C 20.722656 40.867188 21.066406 41.109375 21.453125 41.109375 L 24.101562 41.109375 C 24.597656 41.109375 25 40.71875 25 40.234375 C 25 39.75 24.597656 39.355469 24.101562 39.355469 L 23.71875 39.355469 C 24.390625 38.582031 25 37.609375 25 36.617188 C 25 35.316406 24.105469 34.445312 22.777344 34.445312 Z M 36.792969 41.109375 C 37.335938 41.109375 37.777344 40.71875 37.777344 40.234375 L 37.777344 35.320312 C 37.777344 34.96875 37.539062 34.648438 37.167969 34.511719 C 36.800781 34.375 36.378906 34.449219 36.09375 34.703125 L 34.179688 36.410156 C 33.792969 36.75 33.792969 37.308594 34.179688 37.648438 C 34.5625 37.992188 35.1875 37.992188 35.570312 37.648438 L 35.808594 37.441406 L 35.808594 40.234375 C 35.808594 40.71875 36.246094 41.113281 36.792969 41.113281 Z M 7.421875 34.445312 L 6.398438 34.445312 C 5.933594 34.445312 5.554688 34.835938 5.554688 35.320312 C 5.554688 35.804688 5.933594 36.199219 6.398438 36.199219 L 7.421875 36.199219 C 7.609375 36.199219 7.761719 36.355469 7.761719 36.550781 C 7.761719 36.722656 7.644531 36.863281 7.492188 36.898438 C 7.46875 36.898438 7.445312 36.894531 7.421875 36.894531 L 6.398438 36.894531 C 5.933594 36.894531 5.554688 37.289062 5.554688 37.773438 C 5.554688 38.257812 5.933594 38.648438 6.398438 38.648438 L 6.792969 38.648438 C 6.832031 38.65625 6.871094 38.660156 6.910156 38.660156 L 7.421875 38.660156 C 7.445312 38.660156 7.46875 38.660156 7.492188 38.65625 C 7.644531 38.691406 7.761719 38.832031 7.761719 39.003906 C 7.761719 39.199219 7.609375 39.355469 7.421875 39.355469 L 6.398438 39.355469 C 5.933594 39.355469 5.554688 39.75 5.554688 40.234375 C 5.554688 40.71875 5.933594 41.109375 6.398438 41.109375 L 7.421875 41.109375 C 8.539062 41.109375 9.445312 40.164062 9.445312 39.003906 C 9.445312 38.546875 9.304688 38.125 9.066406 37.777344 C 9.304688 37.433594 9.445312 37.007812 9.445312 36.550781 C 9.445312 35.390625 8.539062 34.445312 7.421875 34.445312 Z M 29.722656 30.554688 C 29.503906 30.554688 29.289062 30.644531 29.132812 30.800781 C 28.976562 30.953125 28.890625 31.171875 28.890625 31.390625 C 28.890625 31.609375 28.976562 31.824219 29.132812 31.976562 C 29.289062 32.132812 29.503906 32.222656 29.722656 32.222656 C 29.941406 32.222656 30.15625 32.132812 30.3125 31.976562 C 30.464844 31.824219 30.554688 31.609375 30.554688 31.390625 C 30.554688 31.167969 30.464844 30.953125 30.3125 30.800781 C 30.15625 30.644531 29.941406 30.554688 29.722656 30.554688 Z M 29.722656 30.554688 "/>
</g>
</svg>
